<?xml version="1.0" encoding="UTF-8"?>
<svg width="70px" height="69px" viewBox="0 0 70 69" version="1.1" xmlns="http://www.w3.org/2000/svg" xmlns:xlink="http://www.w3.org/1999/xlink">
    <!-- Generator: Sketch 44.1 (41455) - http://www.bohemiancoding.com/sketch -->
    <title>calendar</title>
    <desc>Created with Sketch.</desc>
    <defs></defs>
    <g id="Final" stroke="none" stroke-width="1" fill="none" fill-rule="evenodd">
        <g id="KnowAre-Full" transform="translate(-1089.000000, -2430.000000)" stroke="#FDB040" stroke-width="2.5">
            <g id="Section-2" transform="translate(149.000000, 2315.000000)">
                <g id="Wrapper" transform="translate(9.000000, 0.000000)">
                    <g id="Content" transform="translate(0.000000, 79.000000)">
                        <g id="03" transform="translate(809.000000, 14.000000)">
                            <g id="calendar" transform="translate(124.000000, 24.000000)">
                                <path d="M66.6911012,2.77445201 C66.6911012,2.09279257 66.4187853,1.43912693 65.9339601,0.957102167 C65.449135,0.475077399 64.7916718,0.204334365 64.1062577,0.204334365 C53.5017607,0.204334365 13.394862,0.204334365 2.79057055,0.204334365 C2.10495092,0.204334365 1.44748773,0.475077399 0.962662577,0.957102167 C0.477837423,1.43912693 0.205521472,2.09279257 0.205521472,2.77445201 C0.205521472,13.2445449 0.205521472,52.6238638 0.205521472,63.0939567 C0.205521472,63.7756161 0.477837423,64.4292817 0.962662577,64.9113065 C1.44748773,65.3931269 2.10495092,65.6640743 2.79057055,65.6640743 C13.394862,65.6640743 53.5017607,65.6640743 64.1062577,65.6640743 C64.7916718,65.6640743 65.449135,65.3931269 65.9339601,64.9113065 C66.4187853,64.4292817 66.6911012,63.7756161 66.6911012,63.0939567 C66.6911012,52.6238638 66.6911012,13.2445449 66.6911012,2.77445201 Z" id="Shape"></path>
                                <path d="M0.205521472,13.2616533 L66.6911012,13.2496533" id="Shape"></path>
                                <g id="Group" transform="translate(6.867500, 19.461418)">
                                    <path d="M10.7235058,0.0556260358 L10.7421163,37.3473738" id="Shape"></path>
                                    <path d="M44.0024058,0.0556260358 L44.0210163,37.3473738" id="Shape"></path>
                                    <path d="M21.8143077,0.0556260358 L21.8329181,37.3473738" id="Shape"></path>
                                    <path d="M32.1378471,0.0556260358 L32.1528471,37.3473738" id="Shape"></path>
                                    <path d="M26.5438159,4.35452253 L26.5624263,56.6624135" id="Shape" transform="translate(26.553121, 30.508468) rotate(89.957318) translate(-26.553121, -30.508468) "></path>
                                    <path d="M26.5191533,-17.7054156 L26.5377638,34.6024754" id="Shape" transform="translate(26.528459, 8.448530) rotate(89.957318) translate(-26.528459, -8.448530) "></path>
                                    <path d="M26.5314846,-6.68218954 L26.5500951,45.6257014" id="Shape" transform="translate(26.540790, 19.471756) rotate(89.957318) translate(-26.540790, -19.471756) "></path>
                                </g>
                            </g>
                        </g>
                    </g>
                </g>
            </g>
        </g>
    </g>
</svg>