<?xml version="1.0" encoding="UTF-8"?>
<svg width="64px" height="64px" viewBox="0 0 64 64" version="1.1" xmlns="http://www.w3.org/2000/svg" xmlns:xlink="http://www.w3.org/1999/xlink">
    <!-- Generator: Sketch 44.1 (41455) - http://www.bohemiancoding.com/sketch -->
    <title>close</title>
    <desc>Created with Sketch.</desc>
    <defs></defs>
    <g id="Final" stroke="none" stroke-width="1" fill="none" fill-rule="evenodd">
        <g id="KnowAre-Full" transform="translate(-682.000000, -2434.000000)" fill="#FDB040">
            <g id="Section-2" transform="translate(149.000000, 2315.000000)">
                <g id="Wrapper" transform="translate(9.000000, 0.000000)">
                    <g id="Content" transform="translate(0.000000, 79.000000)">
                        <g id="02" transform="translate(398.000000, 39.000000)">
                            <g id="close" transform="translate(124.000000, 0.000000)">
                                <g id="Group" transform="translate(33.631126, 33.170143) rotate(-45.000000) translate(-33.631126, -33.170143) translate(31.631126, -10.829857)">
                                    <path d="M3.60097371,1.83846422 C3.60097371,1.3835761 3.41980533,0.947599745 3.09741439,0.626099874 C2.77502344,0.304398814 2.33763698,0.123932366 1.88168983,0.123932366 C1.88168983,0.123932366 1.88168983,0.123932366 1.88168983,0.123932366 C1.42574269,0.123932366 0.988356223,0.304398814 0.665965277,0.626099874 C0.343574331,0.947599745 0.162405952,1.3835761 0.162405952,1.83846422 C0.162405952,12.9792999 0.162405952,74.9881348 0.162405952,86.1289704 C0.162405952,86.5836573 0.343574331,87.0198349 0.665965277,87.3413348 C0.988356223,87.6628346 1.42574269,87.8435023 1.88168983,87.8435023 C1.88168983,87.8435023 1.88168983,87.8435023 1.88168983,87.8435023 C2.33763698,87.8435023 2.77502344,87.6628346 3.09741439,87.3413348 C3.41980533,87.0198349 3.60097371,86.5836573 3.60097371,86.1289704 C3.60097371,74.9881348 3.60097371,12.9792999 3.60097371,1.83846422 Z" id="Shape"></path>
                                </g>
                                <g id="Group" transform="translate(33.463741, 33.147101) rotate(-135.000000) translate(-33.463741, -33.147101) translate(31.463741, -10.852899)">
                                    <path d="M3.60097371,1.83846422 C3.60097371,1.3835761 3.41980533,0.947599745 3.09741439,0.626099874 C2.77502344,0.304398814 2.33763698,0.123932366 1.88168983,0.123932366 C1.88168983,0.123932366 1.88168983,0.123932366 1.88168983,0.123932366 C1.42574269,0.123932366 0.988356223,0.304398814 0.665965277,0.626099874 C0.343574331,0.947599745 0.162405952,1.3835761 0.162405952,1.83846422 C0.162405952,12.9792999 0.162405952,74.9881348 0.162405952,86.1289704 C0.162405952,86.5836573 0.343574331,87.0198349 0.665965277,87.3413348 C0.988356223,87.6628346 1.42574269,87.8435023 1.88168983,87.8435023 C1.88168983,87.8435023 1.88168983,87.8435023 1.88168983,87.8435023 C2.33763698,87.8435023 2.77502344,87.6628346 3.09741439,87.3413348 C3.41980533,87.0198349 3.60097371,86.5836573 3.60097371,86.1289704 C3.60097371,74.9881348 3.60097371,12.9792999 3.60097371,1.83846422 Z" id="Shape"></path>
                                </g>
                            </g>
                        </g>
                    </g>
                </g>
            </g>
        </g>
    </g>
</svg>